<mxfile host="app.diagrams.net" modified="2024-10-14T09:55:03.908Z" agent="Mozilla/5.0 (X11; Linux x86_64; rv:131.0) Gecko/20100101 Firefox/131.0" version="24.4.4" etag="kAM89bB6I9XOr0ZidpQ-" type="github">
  <diagram name="Page-1" id="gGfxUmXgjolj62gS6BZZ">
    <mxGraphModel>
      <root>
        <mxCell id="0" />
        <mxCell id="1" parent="0" />
      </root>
    </mxGraphModel>
  </diagram>
</mxfile>
